<svg xmlns="http://www.w3.org/2000/svg" viewBox="0 0 400 220" preserveAspectRatio="xMidYMid slice">
  <defs>
    <linearGradient id="bgp" x1="0" y1="0" x2="1" y2="1">
      <stop offset="0" stop-color="#e7f1ff"/>
      <stop offset="1" stop-color="#cfe2ff"/>
    </linearGradient>
  </defs>
  <rect width="400" height="220" fill="url(#bgp)"/>
  <circle cx="345" cy="30" r="55" fill="#0d6efd" opacity="0.12"/>
  <circle cx="40" cy="200" r="70" fill="#0d6efd" opacity="0.10"/>

  <!-- Sách mở -->
  <g transform="translate(200,120)">
    <path d="M-95 30 Q -95 -45 0 -35 Q 95 -45 95 30 L 95 42 Q 45 32 0 44 Q -45 32 -95 42 Z" fill="#0a58ca"/>
    <path d="M-85 24 Q -85 -38 0 -28 L 0 34 Q -42 24 -85 34 Z" fill="#ffffff"/>
    <path d="M85 24 Q 85 -38 0 -28 L 0 34 Q 42 24 85 34 Z" fill="#f1f6ff"/>
    <g stroke="#9ec5fe" stroke-width="5" stroke-linecap="round">
      <path d="M-68 -10 L -18 -14"/>
      <path d="M-68 4 L -18 0"/>
      <path d="M-68 18 L -30 15"/>
      <path d="M18 -14 L 68 -10"/>
      <path d="M18 0 L 68 4"/>
    </g>
    <!-- dấu hỏi -->
    <circle cx="48" cy="14" r="20" fill="#ffc107"/>
    <text x="48" y="23" text-anchor="middle" font-family="Arial, sans-serif" font-size="26" font-weight="bold" fill="#5c4400">?</text>
  </g>

  <!-- bút chì -->
  <g transform="translate(90,60) rotate(-35)">
    <rect x="0" y="0" width="70" height="16" rx="3" fill="#ffb703"/>
    <path d="M70 0 L 86 8 L 70 16 Z" fill="#f4a261"/>
    <path d="M80 4 L 86 8 L 80 12 Z" fill="#33415c"/>
    <rect x="-8" y="0" width="8" height="16" fill="#e63946"/>
  </g>
</svg>
