<svg xmlns="http://www.w3.org/2000/svg" viewBox="0 0 400 220" preserveAspectRatio="xMidYMid slice">
  <defs>
    <linearGradient id="bgc" x1="0" y1="0" x2="1" y2="1">
      <stop offset="0" stop-color="#fff3f0"/>
      <stop offset="1" stop-color="#ffe0d6"/>
    </linearGradient>
  </defs>
  <rect width="400" height="220" fill="url(#bgc)"/>
  <circle cx="50" cy="40" r="60" fill="#e63946" opacity="0.08"/>
  <circle cx="360" cy="185" r="70" fill="#e63946" opacity="0.10"/>

  <!-- Tam giác cảnh báo lớn -->
  <g transform="translate(200,118)">
    <path d="M0 -88 L 92 72 Q 98 84 84 84 L -84 84 Q -98 84 -92 72 Z" fill="#e63946"/>
    <path d="M0 -64 L 72 60 Q 75 66 68 66 L -68 66 Q -75 66 -72 60 Z" fill="#ffffff"/>
    <rect x="-9" y="-30" width="18" height="52" rx="8" fill="#e63946"/>
    <circle cx="0" cy="42" r="11" fill="#e63946"/>
  </g>

  <!-- Tia chớp nhấn mạnh -->
  <g transform="translate(320,60)">
    <path d="M0 -26 L -14 6 L -2 6 L -10 30 L 16 -4 L 2 -4 Z" fill="#ffc107" stroke="#e09f00" stroke-width="2" stroke-linejoin="round"/>
  </g>
  <g transform="translate(80,150)">
    <path d="M0 -20 L -11 5 L -2 5 L -8 23 L 12 -3 L 2 -3 Z" fill="#ffc107" opacity="0.8"/>
  </g>
</svg>
