<svg xmlns="http://www.w3.org/2000/svg" viewBox="0 0 400 220" preserveAspectRatio="xMidYMid slice">
  <defs>
    <linearGradient id="bge" x1="0" y1="0" x2="1" y2="1">
      <stop offset="0" stop-color="#0a58ca"/>
      <stop offset="1" stop-color="#1d7af0"/>
    </linearGradient>
  </defs>
  <rect width="400" height="220" fill="url(#bge)"/>
  <circle cx="60" cy="30" r="60" fill="#ffffff" opacity="0.08"/>
  <circle cx="360" cy="190" r="80" fill="#ffffff" opacity="0.08"/>

  <!-- Bài thi -->
  <g transform="translate(150,110)">
    <rect x="-70" y="-80" width="140" height="170" rx="10" fill="#ffffff"/>
    <rect x="-70" y="-80" width="140" height="34" rx="10" fill="#e7f1ff"/>
    <rect x="-40" y="-92" width="80" height="24" rx="8" fill="#0d6efd"/>
    <g font-family="Arial, sans-serif">
      <g stroke="#c9d8f0" stroke-width="5" stroke-linecap="round">
        <path d="M-48 -20 L 48 -20"/>
        <path d="M-48 8 L 48 8"/>
        <path d="M-48 36 L 48 36"/>
        <path d="M-48 64 L 20 64"/>
      </g>
      <!-- ô tick -->
      <rect x="-56" y="-30" width="18" height="18" rx="4" fill="#2a9d8f"/>
      <path d="M-52 -21 L -48 -17 L -41 -27" stroke="#fff" stroke-width="3.5" fill="none" stroke-linecap="round" stroke-linejoin="round"/>
      <rect x="-56" y="-2" width="18" height="18" rx="4" fill="#2a9d8f"/>
      <path d="M-52 7 L -48 11 L -41 1" stroke="#fff" stroke-width="3.5" fill="none" stroke-linecap="round" stroke-linejoin="round"/>
      <rect x="-56" y="26" width="18" height="18" rx="4" fill="#e9ecef" stroke="#adb5bd" stroke-width="2"/>
      <rect x="-56" y="54" width="18" height="18" rx="4" fill="#e9ecef" stroke="#adb5bd" stroke-width="2"/>
    </g>
  </g>

  <!-- Đồng hồ -->
  <g transform="translate(290,105)">
    <circle r="52" fill="#ffffff"/>
    <circle r="44" fill="#f1f6ff"/>
    <rect x="-7" y="-64" width="14" height="12" rx="4" fill="#ffc107"/>
    <g stroke="#0a58ca" stroke-linecap="round">
      <path d="M0 0 L 0 -28" stroke-width="6"/>
      <path d="M0 0 L 20 12" stroke-width="5"/>
    </g>
    <circle r="6" fill="#0a58ca"/>
    <g fill="#6c8ebf">
      <circle cx="0" cy="-38" r="3"/>
      <circle cx="38" cy="0" r="3"/>
      <circle cx="0" cy="38" r="3"/>
      <circle cx="-38" cy="0" r="3"/>
    </g>
  </g>
</svg>
